# xmcd
#
# Track frame offsets:
#	150
#	16725
#	31678
#	45376
#	60146
#	73832
#	88594
#	102951
#	114390
#	129347
#	146986
#	165798
#
# Disc length: 2432 seconds
#
# Revision: 0
# Processed by: cddbd v1.5.2PL0 Copyright (c) Steve Scherf et al.
# Submitted via: EasyCDDAExtractor 16.0.6.1
#
DISCID=8a097e0c
DTITLE=Καρράς Βασίλης - Σαράντα εννέα μεγ. επιτυχίες-Β. Καρράς 1
DYEAR=2010
DGENRE=Λαϊκή νεώτερη
TTITLE0=Πριγκηπέσσα [Σωκράτης Μάλαμας]
TTITLE1=Τα χιλιόμετρα [Βασίλης Καρράς]
TTITLE2=Στην άκρη της αβύσσου [Κων. Κυριακίδης-Ζωή Λύρα]
TTITLE3=Το κόκκινο φουστάνι [Σ. Κουγιουμτζής-Κ. Κινδύνης]
TTITLE4=Σήκω και φύγε [Βασίλης Καρράς]
TTITLE5=Μία μυτιά Ο2 [Ιορδ. Παύλου-Γιάννης Μαλλιάς]
TTITLE6=Κάτι μού κρύβεις [Ορφέας Περίδης]
TTITLE7=Έξω φυσάει και βρέχει [Σ. Ξαρχάκος-Λ. Παπαδόπουλος]
TTITLE8=Δε σε ενδιαφέρει [Χάρης Γεωργίου-Γιάννης Μαλλιάς]
TTITLE9=Δικό σου όνειρο [Βασίλης Καρράς]
TTITLE10=Πήρα την ψυχή μου κι έφυγα [Αλ. Χρυσοβέργης-Σπ. Γιατράς]
TTITLE11=Στάγδην βραδέως [Ορφέας Περίδης]
EXTD=
EXTT0=
EXTT1=
EXTT2=
EXTT3=
EXTT4=
EXTT5=
EXTT6=
EXTT7=
EXTT8=
EXTT9=
EXTT10=
EXTT11=
PLAYORDER=
